<svg
              width="44"
              height="44"
              viewBox="0 0 44 44"
              fill="none"
              xmlns="http://www.w3.org/2000/svg"
            >
              <rect width="44" height="44" rx="8" fill="#2D2D2D" />
              <g clipPath="url(#clip0_99_268)">
                <path
                  fillRule="evenodd"
                  clipRule="evenodd"
                  d="M22 24.122L27.303 29.425C27.5844 29.7064 27.966 29.8645 28.364 29.8645C28.7619 29.8645 29.1436 29.7064 29.425 29.425C29.7064 29.1436 29.8645 28.7619 29.8645 28.364C29.8645 27.966 29.7064 27.5844 29.425 27.303L24.12 22L29.424 16.697C29.5632 16.5577 29.6737 16.3923 29.749 16.2102C29.8244 16.0282 29.8631 15.8331 29.8631 15.6361C29.8631 15.4391 29.8242 15.2441 29.7488 15.0621C29.6733 14.8801 29.5628 14.7148 29.4235 14.5755C29.2841 14.4362 29.1187 14.3258 28.9367 14.2504C28.7547 14.1751 28.5596 14.1363 28.3626 14.1364C28.1656 14.1364 27.9706 14.1753 27.7886 14.2507C27.6066 14.3261 27.4412 14.4367 27.302 14.576L22 19.879L16.697 14.576C16.5587 14.4327 16.3932 14.3183 16.2102 14.2396C16.0273 14.1609 15.8305 14.1194 15.6313 14.1176C15.4321 14.1158 15.2346 14.1537 15.0502 14.229C14.8658 14.3043 14.6983 14.4156 14.5574 14.5564C14.4165 14.6972 14.305 14.8646 14.2295 15.0489C14.154 15.2332 14.116 15.4307 14.1176 15.6299C14.1192 15.829 14.1605 16.0259 14.2391 16.2089C14.3176 16.392 14.4318 16.5575 14.575 16.696L19.88 22L14.576 27.304C14.4328 27.4424 14.3186 27.608 14.2401 27.791C14.1615 27.9741 14.1202 28.1709 14.1186 28.3701C14.117 28.5693 14.155 28.7668 14.2305 28.9511C14.306 29.1354 14.4175 29.3028 14.5584 29.4436C14.6993 29.5844 14.8668 29.6957 15.0512 29.771C15.2356 29.8463 15.4331 29.8842 15.6323 29.8824C15.8315 29.8805 16.0283 29.8391 16.2112 29.7604C16.3942 29.6817 16.5597 29.5673 16.698 29.424L22 24.122Z"
                  fill="#F6F6F6"
                />
              </g>
              <defs>
                <clipPath id="clip0_99_268">
                  <rect
                    width="24"
                    height="24"
                    fill="white"
                    transform="translate(10 10)"
                  />
                </clipPath>
              </defs>
            </svg>
