<svg
              width="44"
              height="44"
              viewBox="0 0 44 44"
              fill="none"
              xmlns="http://www.w3.org/2000/svg"
            >
              <rect width="44" height="44" rx="8" fill="#2D2D2D" />
              <g clipPath="url(#clip0_63_6)">
                <path
                  d="M30 28C30.2549 28.0003 30.5 28.0979 30.6854 28.2728C30.8707 28.4478 30.9822 28.687 30.9972 28.9414C31.0121 29.1958 30.9293 29.4464 30.7657 29.6418C30.6021 29.8373 30.3701 29.9629 30.117 29.993L30 30H14C13.7451 29.9997 13.5 29.9021 13.3146 29.7272C13.1293 29.5522 13.0178 29.313 13.0028 29.0586C12.9879 28.8042 13.0707 28.5536 13.2343 28.3582C13.3979 28.1627 13.6299 28.0371 13.883 28.007L14 28H30ZM30 21C30.2652 21 30.5196 21.1054 30.7071 21.2929C30.8946 21.4804 31 21.7348 31 22C31 22.2652 30.8946 22.5196 30.7071 22.7071C30.5196 22.8946 30.2652 23 30 23H14C13.7348 23 13.4804 22.8946 13.2929 22.7071C13.1054 22.5196 13 22.2652 13 22C13 21.7348 13.1054 21.4804 13.2929 21.2929C13.4804 21.1054 13.7348 21 14 21H30ZM30 14C30.2652 14 30.5196 14.1054 30.7071 14.2929C30.8946 14.4804 31 14.7348 31 15C31 15.2652 30.8946 15.5196 30.7071 15.7071C30.5196 15.8946 30.2652 16 30 16H14C13.7348 16 13.4804 15.8946 13.2929 15.7071C13.1054 15.5196 13 15.2652 13 15C13 14.7348 13.1054 14.4804 13.2929 14.2929C13.4804 14.1054 13.7348 14 14 14H30Z"
                  fill="#F6F6F6"
                />
              </g>
              <defs>
                <clipPath id="clip0_63_6">
                  <rect
                    width="24"
                    height="24"
                    fill="white"
                    transform="translate(10 10)"
                  />
                </clipPath>
              </defs>
            </svg>
